<svg id="Capa_1" enable-background="new 0 0 510 510" height="512" viewBox="0 0 510 510" width="512" xmlns="http://www.w3.org/2000/svg" xmlns:xlink="http://www.w3.org/1999/xlink"><linearGradient id="SVGID_1_" gradientUnits="userSpaceOnUse" x1="255" x2="255" y1="399.123" y2="511.658"><stop offset="0" stop-color="#9ae1d3"/><stop offset="1" stop-color="#80d1c1"/></linearGradient><linearGradient id="SVGID_2_" gradientUnits="userSpaceOnUse" x1="349.18" x2="281.257" y1="490.362" y2="342.703"><stop offset="0" stop-color="#0b799d" stop-opacity="0"/><stop offset=".1739" stop-color="#117d9e" stop-opacity=".174"/><stop offset=".414" stop-color="#2389a0" stop-opacity=".414"/><stop offset=".6928" stop-color="#409ca3" stop-opacity=".693"/><stop offset=".9986" stop-color="#69b7a8" stop-opacity=".999"/><stop offset="1" stop-color="#69b7a8"/></linearGradient><linearGradient id="lg1"><stop offset="0" stop-color="#fce9cb"/><stop offset="1" stop-color="#ffbd95"/></linearGradient><linearGradient id="SVGID_3_" gradientUnits="userSpaceOnUse" x1="108.363" x2="137.417" xlink:href="#lg1" y1="234.042" y2="263.096"/><linearGradient id="SVGID_4_" gradientUnits="userSpaceOnUse" x1="387.101" x2="416.155" xlink:href="#lg1" y1="234.042" y2="263.096"/><linearGradient id="SVGID_5_" gradientUnits="userSpaceOnUse" x1="186.343" x2="309.565" xlink:href="#lg1" y1="134.548" y2="329.154"/><linearGradient id="SVGID_6_" gradientUnits="userSpaceOnUse" x1="255" x2="255" y1="253" y2="44.99"><stop offset="0" stop-color="#f9dbb7" stop-opacity="0"/><stop offset=".0209" stop-color="#f7d2b0" stop-opacity=".021"/><stop offset=".1667" stop-color="#ea9b82" stop-opacity=".167"/><stop offset=".3134" stop-color="#df6c5a" stop-opacity=".313"/><stop offset=".4582" stop-color="#d5453a" stop-opacity=".458"/><stop offset=".6006" stop-color="#ce2720" stop-opacity=".601"/><stop offset=".7399" stop-color="#c9110e" stop-opacity=".74"/><stop offset=".8747" stop-color="#c60404" stop-opacity=".875"/><stop offset="1" stop-color="#c50000"/></linearGradient><linearGradient id="lg2"><stop offset="0" stop-color="#8a7889"/><stop offset="1" stop-color="#6e566e"/></linearGradient><linearGradient id="SVGID_7_" gradientUnits="userSpaceOnUse" x1="217.876" x2="328.351" xlink:href="#lg2" y1="122.605" y2="216.65"/><linearGradient id="SVGID_8_" gradientUnits="userSpaceOnUse" x1="190.162" x2="254.747" y1="78.784" y2="188.126"><stop offset="0" stop-color="#6e566e" stop-opacity="0"/><stop offset=".2944" stop-color="#674d66" stop-opacity=".294"/><stop offset="1" stop-color="#593b56"/></linearGradient><linearGradient id="SVGID_9_" gradientUnits="userSpaceOnUse" x1="255" x2="255" y1="237.063" y2="418.51"><stop offset="0" stop-color="#faa68e" stop-opacity="0"/><stop offset="1" stop-color="#c9766e"/></linearGradient><linearGradient id="lg3"><stop offset="0" stop-color="#ff637b"/><stop offset="1" stop-color="#e63950"/></linearGradient><linearGradient id="SVGID_10_" gradientUnits="userSpaceOnUse" x1="264.062" x2="249.562" xlink:href="#lg3" y1="398.038" y2="338.538"/><linearGradient id="SVGID_11_" gradientUnits="userSpaceOnUse" x1="255" x2="255" y1="368.667" y2="394.333"><stop offset="0" stop-color="#ff9690"/><stop offset="1" stop-color="#f9545b"/></linearGradient><linearGradient id="SVGID_12_" gradientTransform="matrix(.375 -.927 .927 .375 -348.398 -1082.071)" gradientUnits="userSpaceOnUse" x1="-1021.679" x2="-1033.152" xlink:href="#lg2" y1="984.817" y2="1005.637"/><linearGradient id="SVGID_13_" gradientTransform="matrix(-.375 -.927 -.927 .375 -1410.714 -1082.071)" gradientUnits="userSpaceOnUse" x1="-1872.191" x2="-1883.664" xlink:href="#lg2" y1="-1118.871" y2="-1098.05"/><linearGradient id="SVGID_14_" gradientUnits="userSpaceOnUse" x1="386.931" x2="446.431" y1="153.572" y2="182.072"><stop offset="0" stop-color="#edf5ff"/><stop offset="1" stop-color="#d5e8fe"/></linearGradient><linearGradient id="SVGID_15_" gradientUnits="userSpaceOnUse" x1="410.041" x2="456.041" xlink:href="#lg3" y1="177.514" y2="187.514"/><linearGradient id="SVGID_16_" gradientUnits="userSpaceOnUse" x1="457.307" x2="335.666" y1="180.481" y2="133.952"><stop offset="0" stop-color="#fff" stop-opacity="0"/><stop offset="1" stop-color="#fff"/></linearGradient><linearGradient id="SVGID_17_" gradientTransform="matrix(1 -.005 .005 1 -2176.981 -1121.169)" gradientUnits="userSpaceOnUse" x1="2589.633" x2="2600.64" xlink:href="#lg3" y1="1150.899" y2="1150.899"/><linearGradient id="SVGID_18_" gradientTransform="matrix(.613 .791 -.791 .613 -2532.083 -179.006)" gradientUnits="userSpaceOnUse" x1="1993.997" x2="2005.003" xlink:href="#lg3" y1="-2229.223" y2="-2229.223"/><linearGradient id="SVGID_19_" gradientTransform="matrix(-.605 .796 .796 .605 -4079.799 -171.795)" gradientUnits="userSpaceOnUse" x1="-2541.543" x2="-2530.536" xlink:href="#lg3" y1="3681.212" y2="3681.212"/><g><path d="m486.754 463.53c12.805 14.415 3.674 37.25-15.537 38.897-55.03 4.716-127.891 7.573-207.827 7.573-88.483 0-168.293-3.502-224.84-9.136-18.978-1.891-28.082-24.562-15.317-38.732.096-.107.192-.213.288-.32 56.824-63.133 139.197-102.821 230.831-102.821 90.65 0 172.172 38.793 228.952 100.717 1.16 1.265 2.31 2.538 3.45 3.822z" fill="url(#SVGID_1_)"/><path d="m471.22 502.43c-51.59 4.42-118.86 7.21-192.94 7.54l-131.75-131.74c33.59-12.44 69.91-19.24 107.82-19.24 90.65 0 172.17 38.79 228.95 100.72 1.16 1.26 2.31 2.54 3.45 3.82 12.81 14.42 3.68 37.25-15.53 38.9z" fill="url(#SVGID_2_)"/><g><g><path d="m115.631 280.922c-16.863 0-30.534-13.67-30.534-30.534v-18.158c0-16.863 13.67-30.534 30.534-30.534 16.863 0 30.534 13.67 30.534 30.534v18.159c0 16.863-13.671 30.533-30.534 30.533z" fill="url(#SVGID_3_)"/><path d="m394.369 280.922c-16.863 0-30.534-13.67-30.534-30.534v-18.158c0-16.863 13.67-30.534 30.534-30.534 16.863 0 30.534 13.67 30.534 30.534v18.159c-.001 16.863-13.671 30.533-30.534 30.533z" fill="url(#SVGID_4_)"/></g><path d="m255 428.583c76.292 0 139.053-60.317 141.809-136.559 1.182-32.689 1.182-65.401 0-98.089-2.757-76.242-65.517-136.56-141.809-136.56-76.291 0-139.052 60.317-141.808 136.559-1.182 32.689-1.182 65.401 0 98.089 2.755 76.242 65.516 136.56 141.808 136.56z" fill="url(#SVGID_5_)"/><path d="m255 57.375c-76.291 0-139.052 60.317-141.808 136.559-.422 11.686-.687 53.575-.808 65.265h285.232c-.12-11.69-.385-53.579-.808-65.265-2.756-76.241-65.516-136.559-141.808-136.559z" fill="url(#SVGID_6_)"/><g><path d="m113.591 241.396 2.627-39.194c1.406-20.975 13.447-40.008 31.509-50.253 8.956-5.08 18.954-7.747 29.001-7.747h76.668c27.857 0 54.309-10.967 73.254-30.201l18.466 29.523c4.423 7.071 10.63 12.967 17.989 17.065 15.074 8.393 25.097 24.212 26.174 41.621l1.728 27.945c.323 5.23 4.68 9.488 9.728 9.488 4.204 0 7.657-2.984 8.368-7.218l12.524-74.636c3.59-21.393 4.48-42.895 2.734-64.029-2.606-31.537-33.582-54.715-64.845-49.244-40.035-36.187-94.832-51.433-147.556-41.586l-45.838 8.561c-41.556 7.761-73.429 43.221-74.706 84.806l-1.362 44.339c-.616 20.064.36 40.409 2.968 60.848l5.302 41.558c.473 3.707 3.413 6.369 7.046 6.369 4.244.001 7.924-3.595 8.221-8.015z" fill="url(#SVGID_7_)"/><path d="m359.516 44.515c-40.035-36.186-94.832-51.432-147.556-41.585l-45.838 8.561c-41.556 7.761-73.429 43.221-74.706 84.806l-1.362 44.339c-.616 20.064.36 40.409 2.968 60.848l5.302 41.558c.473 3.707 3.413 6.369 7.046 6.369 4.243 0 7.924-3.596 8.22-8.015l2.627-39.194c1.406-20.975 13.447-40.008 31.509-50.253 8.956-5.08 18.954-7.747 29.002-7.747h76.668c27.857 0 54.309-10.967 73.254-30.201.001 0-11.759-48.699 32.866-69.486z" fill="url(#SVGID_8_)"/></g><path d="m263.749 315.333h-17.499c-14.023 0-24.949-10.339-23.449-22.19l9.149-72.289h46.098l9.149 72.289c1.501 11.851-9.424 22.19-23.448 22.19z" fill="url(#SVGID_9_)"/><g><path d="m299.928 354.114c-.189-4.666-2.949-8.395-7.326-9.576-24.52-6.616-50.686-6.616-75.205 0-4.377 1.181-7.136 4.909-7.326 9.576-.733 18.046 3.576 32.858 11.55 44.999 1.617 2.461 4.597 4.276 7.874 4.825 17.134 2.871 33.874 2.871 51.008 0 3.277-.549 6.258-2.364 7.874-4.825 7.976-12.141 12.284-26.953 11.551-44.999z" fill="url(#SVGID_10_)"/><path d="m286.528 384.866c1.742 2.67.5 6.901-2.114 7.206-7.486.874-17.398 1.403-28.273 1.403-12.037 0-22.894-.649-30.587-1.692-2.582-.35-3.82-4.55-2.084-7.175.013-.02.026-.039.039-.059 7.73-11.695 18.936-19.047 31.402-19.047 12.332 0 23.422 7.186 31.146 18.658.159.232.315.468.471.706z" fill="url(#SVGID_11_)"/></g><g><path d="m214.878 235.104c-.008.02-.016.039-.024.059-4.314 10.45-15.931 23.103-46.769 24.033-4.691.142-8.609-3.547-8.75-8.238-.14-4.692 3.547-8.609 8.238-8.75 12.004-.362 27.225-3.004 31.571-13.531 1.791-4.339 6.76-6.403 11.098-4.612 4.318 1.782 6.384 6.715 4.636 11.039z" fill="url(#SVGID_12_)"/><path d="m295.122 235.104c.008.02.016.039.024.059 4.314 10.45 15.931 23.103 46.769 24.033 4.691.142 8.609-3.547 8.75-8.238.14-4.692-3.547-8.609-8.238-8.75-12.004-.362-27.225-3.004-31.571-13.531-1.791-4.339-6.76-6.403-11.098-4.612-4.319 1.782-6.384 6.715-4.636 11.039z" fill="url(#SVGID_13_)"/></g></g><g><path d="m448.114 193.467v-117.467c0-15.464-12.536-28-28-28-15.464 0-28 12.536-28 28v117.467c-14.187 9.191-23.582 25.149-23.582 43.312 0 28.488 23.094 51.582 51.582 51.582s51.582-23.094 51.582-51.582c0-18.163-9.395-34.121-23.582-43.312z" fill="url(#SVGID_14_)"/><path d="m437.393 192.243v-91.931c0-9.543-7.736-17.28-17.28-17.28-9.543 0-17.28 7.736-17.28 17.28v91.936c0 5.355-2.488 10.396-6.713 13.686-9.518 7.412-15.518 19.128-15.065 32.228.685 19.826 16.489 36.234 36.28 37.602 22.841 1.579 41.861-16.482 41.861-38.986 0-12.633-5.997-23.862-15.297-31.005-4.175-3.206-6.506-8.266-6.506-13.53z" fill="url(#SVGID_15_)"/><path d="m448.114 193.467v-117.467c0-.456-.011-.91-.033-1.361-1.203-25.126-39.232-25.126-40.435 0-.022.451-.033.905-.033 1.361v96.438c0 11.333-3.971 22.329-11.314 30.962-7.65 8.994-12.269 20.645-12.269 33.379 0 1.939.107 3.853.315 5.737 5.657 51.12 81.377 51.12 87.034 0 .208-1.883.315-3.797.315-5.737.002-18.163-9.393-34.121-23.58-43.312z" fill="url(#SVGID_16_)"/></g><g><g><path d="m420.143 35.287c-5.477.026-9.937-4.393-9.962-9.87l-.072-15.454c-.026-5.477 4.393-9.937 9.87-9.962 5.477-.026 9.937 4.393 9.962 9.87l.072 15.454c.026 5.476-4.393 9.936-9.87 9.962z" fill="url(#SVGID_17_)"/></g><g><path d="m438.693 44.327c-3.354-4.329-2.564-10.558 1.765-13.912l12.217-9.465c4.329-3.354 10.558-2.564 13.912 1.765 3.354 4.329 2.564 10.558-1.765 13.912l-12.217 9.465c-4.329 3.354-10.558 2.564-13.912-1.765z" fill="url(#SVGID_18_)"/></g><g><path d="m401.679 44.499c3.314-4.36 2.465-10.581-1.895-13.895l-12.304-9.351c-4.36-3.314-10.581-2.465-13.895 1.895-3.314 4.36-2.466 10.581 1.895 13.895l12.304 9.351c4.36 3.314 10.581 2.466 13.895-1.895z" fill="url(#SVGID_19_)"/></g></g></g></svg>