<?xml version="1.0" encoding="iso-8859-1"?>
<!-- Generator: Adobe Illustrator 16.0.0, SVG Export Plug-In . SVG Version: 6.00 Build 0)  -->
<!DOCTYPE svg PUBLIC "-//W3C//DTD SVG 1.1//EN" "http://www.w3.org/Graphics/SVG/1.1/DTD/svg11.dtd">
<svg version="1.1" id="Capa_1" xmlns="http://www.w3.org/2000/svg" xmlns:xlink="http://www.w3.org/1999/xlink" x="0px" y="0px"
	 width="101.733px" height="101.733px" viewBox="0 0 101.733 101.733" style="enable-background:new 0 0 101.733 101.733;"
	 xml:space="preserve">
<g>
	<path d="M92.316,50.708c-1.108-0.618-2.309-1.054-3.522-1.415c-0.921-10-6.951-17.828-17.188-22.063
		c-9.337-3.869-17.742-3.078-24.321,2.118V23.66c1.447,0.348,3.665,0.775,6.354,0.775h0.005c3.883,0,7.337-0.893,10.196-2.652
		c7.823-4.786,10.329-15.42,10.417-15.869c0.317-1.396-0.471-2.813-1.825-3.272c-0.14-0.052-3.614-1.212-8.008-1.212
		c-3.888,0-7.324,0.886-10.192,2.646c-3.11,1.907-5.34,4.72-6.948,7.458v-8.17c0-1.546-1.259-2.802-2.803-2.802
		c-1.545,0-2.801,1.256-2.801,2.802v25.989c-6.588-5.201-14.993-5.997-24.327-2.124C1.725,33.701-3.692,47.709,2.511,65.662
		C7.57,80.35,18.995,94.494,29.681,99.299c4.75,2.142,9.305,2.431,13.19,0.821c0.537-0.219,1.064-0.492,1.618-0.821
		c0.543,0.34,1.064,0.592,1.604,0.821c1.704,0.711,3.49,1.051,5.372,1.051c3.974,0,8.288-1.669,12.76-4.782
		c2.988,2.172,5.313,3.651,6.028,4.104c0.454,0.285,0.977,0.427,1.489,0.427c0.524,0,1.047-0.142,1.499-0.427
		c2.535-1.587,24.859-15.924,27.581-28.267c0.599-1.824,0.911-3.712,0.911-5.621C101.729,59.988,98.122,53.893,92.316,50.708z
		 M57.165,8.85c1.978-1.209,4.427-1.816,7.271-1.816c1.308,0,2.53,0.131,3.529,0.298c-1.078,2.881-3.272,7.368-7.037,9.677
		c-1.981,1.209-4.432,1.822-7.283,1.822c-1.31,0-2.533-0.136-3.528-0.304C51.292,15.417,53.589,11.052,57.165,8.85z M48.215,94.922
		c-0.593-0.246-1.214-0.624-1.994-1.246c-1.021-0.812-2.454-0.812-3.476,0.004c-0.738,0.585-1.387,1.001-2.01,1.253
		c-2.46,1.018-5.407,0.766-8.752-0.748c-9.24-4.155-19.634-17.211-24.168-30.354c-6.639-19.231,2.696-27.703,11.706-31.429
		c6.563-2.711,15.84-3.962,22.706,5.593c0.038,0.054,0.112,0.076,0.14,0.123c0.185,0.226,0.405,0.403,0.645,0.561
		c0.112,0.066,0.177,0.145,0.296,0.194c0.357,0.175,0.763,0.292,1.193,0.292c0.425,0,0.818-0.117,1.195-0.292
		c0.112-0.049,0.183-0.123,0.285-0.189c0.25-0.159,0.47-0.341,0.656-0.572c0.044-0.052,0.112-0.074,0.14-0.117
		c6.853-9.555,16.117-8.318,22.694-5.593c5.605,2.315,12.235,7.026,13.604,16.175c-4.121,0.131-8.189,1.554-11.316,4.244
		c-5.558-4.775-14.102-5.716-20.583-2.126c-5.799,3.198-9.404,9.283-9.404,15.904c0,1.921,0.31,3.819,0.829,5.347
		c1.62,7.337,9.84,15.228,16.928,20.886C56.256,94.802,51.969,96.486,48.215,94.922z M95.419,70.724
		c-1.806,8.156-16.515,19.328-23.677,24.056c-1.587-1.051-3.572-2.451-5.681-4.027c-0.142-0.115-0.285-0.251-0.454-0.339
		c-7.316-5.549-16.19-13.55-17.628-19.962c-0.413-1.242-0.621-2.539-0.621-3.853c0-4.564,2.481-8.777,6.506-10.993
		c1.841-1.034,3.92-1.56,6.039-1.56c3.753,0,7.274,1.663,9.677,4.552c0.533,0.647,1.326,1.019,2.162,1.019
		c0.831,0,1.619-0.371,2.157-1.019c3.741-4.52,10.592-5.832,15.713-2.98c4.02,2.215,6.513,6.417,6.513,10.998
		C96.125,67.901,95.911,69.197,95.419,70.724z"/>
</g>
<g>
</g>
<g>
</g>
<g>
</g>
<g>
</g>
<g>
</g>
<g>
</g>
<g>
</g>
<g>
</g>
<g>
</g>
<g>
</g>
<g>
</g>
<g>
</g>
<g>
</g>
<g>
</g>
<g>
</g>
</svg>
